<svg xmlns="http://www.w3.org/2000/svg" width="900" height="300" viewBox="0 0 900 300"><style>.i{fill:#0a0a0a}.p{fill:#fff}.g{fill:#6b6b6b}.s{stroke:#0a0a0a}.sh{fill:#000;fill-opacity:.4}.dot{fill:#0a0a0a;fill-opacity:.22}.m{font-family:"JetBrains Mono",ui-monospace,Consolas,"Courier New",monospace}.t{font-family:"Inter Tight",Inter,"Segoe UI",Helvetica,Arial,sans-serif}@media (prefers-color-scheme:dark){.i{fill:#f5f5f5}.p{fill:#0d1117}.g{fill:#9a9a9a}.s{stroke:#f5f5f5}.sh{fill:#fff;fill-opacity:.25}.dot{fill:#fff;fill-opacity:.16}}</style><defs><pattern id="d" width="10" height="10" patternUnits="userSpaceOnUse"><circle class="dot" cx="5" cy="5" r=".9"/></pattern></defs><rect class="p" width="900" height="300"/><rect width="900" height="300" fill="url(#d)"/><rect class="sh" x="42" y="22" width="816" height="260"/><rect class="p s" x="40.5" y="20.5" width="816" height="260"/><rect class="i" x="40" y="20" width="817" height="22"/><text class="p m" x="50" y="35" font-size="12">активность — github.com/rickrollru</text><text class="p m" x="846" y="35" font-size="12" text-anchor="end" letter-spacing="2">▪▪</text><text class="g m" x="62" y="70" font-size="10">▪ вклад за год</text><text class="i t" x="62" y="106" font-size="34" font-weight="600" letter-spacing="-1.5">1</text><text class="g m" x="162" y="70" font-size="10">▪ репозиториев</text><text class="i t" x="162" y="106" font-size="34" font-weight="600" letter-spacing="-1.5">1</text><text class="g m" x="262" y="70" font-size="10">▪ звёзд</text><text class="i t" x="262" y="106" font-size="34" font-weight="600" letter-spacing="-1.5">0</text><text class="g m" x="362" y="70" font-size="10">▪ подписчиков</text><text class="i t" x="362" y="106" font-size="34" font-weight="600" letter-spacing="-1.5">0</text><text class="g m" x="62" y="140" font-size="10">▪ последние полгода</text><rect class="p s" x="62.5" y="150.5" width="10" height="10" stroke-opacity=".35"/><rect class="p s" x="62.5" y="165.1" width="10" height="10" stroke-opacity=".35"/><rect class="p s" x="62.5" y="179.7" width="10" height="10" stroke-opacity=".35"/><rect class="p s" x="62.5" y="194.3" width="10" height="10" stroke-opacity=".35"/><rect class="p s" x="62.5" y="208.9" width="10" height="10" stroke-opacity=".35"/><rect class="p s" x="62.5" y="223.5" width="10" height="10" stroke-opacity=".35"/><rect class="p s" x="62.5" y="238.1" width="10" height="10" stroke-opacity=".35"/><rect class="p s" x="77.1" y="150.5" width="10" height="10" stroke-opacity=".35"/><rect class="p s" x="77.1" y="165.1" width="10" height="10" stroke-opacity=".35"/><rect class="p s" x="77.1" y="179.7" width="10" height="10" stroke-opacity=".35"/><rect class="p s" x="77.1" y="194.3" width="10" height="10" stroke-opacity=".35"/><rect class="p s" x="77.1" y="208.9" width="10" height="10" stroke-opacity=".35"/><rect class="p s" x="77.1" y="223.5" width="10" height="10" stroke-opacity=".35"/><rect class="p s" x="77.1" y="238.1" width="10" height="10" stroke-opacity=".35"/><rect class="p s" x="91.7" y="150.5" width="10" height="10" stroke-opacity=".35"/><rect class="p s" x="91.7" y="165.1" width="10" height="10" stroke-opacity=".35"/><rect class="p s" x="91.7" y="179.7" width="10" height="10" stroke-opacity=".35"/><rect class="p s" x="91.7" y="194.3" width="10" height="10" stroke-opacity=".35"/><rect class="p s" x="91.7" y="208.9" width="10" height="10" stroke-opacity=".35"/><rect class="p s" x="91.7" y="223.5" width="10" height="10" stroke-opacity=".35"/><rect class="p s" x="91.7" y="238.1" width="10" height="10" stroke-opacity=".35"/><rect class="p s" x="106.3" y="150.5" width="10" height="10" stroke-opacity=".35"/><rect class="p s" x="106.3" y="165.1" width="10" height="10" stroke-opacity=".35"/><rect class="p s" x="106.3" y="179.7" width="10" height="10" stroke-opacity=".35"/><rect class="p s" x="106.3" y="194.3" width="10" height="10" stroke-opacity=".35"/><rect class="p s" x="106.3" y="208.9" width="10" height="10" stroke-opacity=".35"/><rect class="p s" x="106.3" y="223.5" width="10" height="10" stroke-opacity=".35"/><rect class="p s" x="106.3" y="238.1" width="10" height="10" stroke-opacity=".35"/><rect class="p s" x="120.9" y="150.5" width="10" height="10" stroke-opacity=".35"/><rect class="p s" x="120.9" y="165.1" width="10" height="10" stroke-opacity=".35"/><rect class="p s" x="120.9" y="179.7" width="10" height="10" stroke-opacity=".35"/><rect class="p s" x="120.9" y="194.3" width="10" height="10" stroke-opacity=".35"/><rect class="p s" x="120.9" y="208.9" width="10" height="10" stroke-opacity=".35"/><rect class="p s" x="120.9" y="223.5" width="10" height="10" stroke-opacity=".35"/><rect class="p s" x="120.9" y="238.1" width="10" height="10" stroke-opacity=".35"/><rect class="p s" x="135.5" y="150.5" width="10" height="10" stroke-opacity=".35"/><rect class="p s" x="135.5" y="165.1" width="10" height="10" stroke-opacity=".35"/><rect class="p s" x="135.5" y="179.7" width="10" height="10" stroke-opacity=".35"/><rect class="p s" x="135.5" y="194.3" width="10" height="10" stroke-opacity=".35"/><rect class="p s" x="135.5" y="208.9" width="10" height="10" stroke-opacity=".35"/><rect class="p s" x="135.5" y="223.5" width="10" height="10" stroke-opacity=".35"/><rect class="p s" x="135.5" y="238.1" width="10" height="10" stroke-opacity=".35"/><rect class="p s" x="150.1" y="150.5" width="10" height="10" stroke-opacity=".35"/><rect class="p s" x="150.1" y="165.1" width="10" height="10" stroke-opacity=".35"/><rect class="p s" x="150.1" y="179.7" width="10" height="10" stroke-opacity=".35"/><rect class="p s" x="150.1" y="194.3" width="10" height="10" stroke-opacity=".35"/><rect class="p s" x="150.1" y="208.9" width="10" height="10" stroke-opacity=".35"/><rect class="p s" x="150.1" y="223.5" width="10" height="10" stroke-opacity=".35"/><rect class="p s" x="150.1" y="238.1" width="10" height="10" stroke-opacity=".35"/><rect class="p s" x="164.7" y="150.5" width="10" height="10" stroke-opacity=".35"/><rect class="p s" x="164.7" y="165.1" width="10" height="10" stroke-opacity=".35"/><rect class="p s" x="164.7" y="179.7" width="10" height="10" stroke-opacity=".35"/><rect class="p s" x="164.7" y="194.3" width="10" height="10" stroke-opacity=".35"/><rect class="p s" x="164.7" y="208.9" width="10" height="10" stroke-opacity=".35"/><rect class="p s" x="164.7" y="223.5" width="10" height="10" stroke-opacity=".35"/><rect class="p s" x="164.7" y="238.1" width="10" height="10" stroke-opacity=".35"/><rect class="p s" x="179.3" y="150.5" width="10" height="10" stroke-opacity=".35"/><rect class="p s" x="179.3" y="165.1" width="10" height="10" stroke-opacity=".35"/><rect class="p s" x="179.3" y="179.7" width="10" height="10" stroke-opacity=".35"/><rect class="p s" x="179.3" y="194.3" width="10" height="10" stroke-opacity=".35"/><rect class="p s" x="179.3" y="208.9" width="10" height="10" stroke-opacity=".35"/><rect class="p s" x="179.3" y="223.5" width="10" height="10" stroke-opacity=".35"/><rect class="p s" x="179.3" y="238.1" width="10" height="10" stroke-opacity=".35"/><rect class="p s" x="193.9" y="150.5" width="10" height="10" stroke-opacity=".35"/><rect class="p s" x="193.9" y="165.1" width="10" height="10" stroke-opacity=".35"/><rect class="p s" x="193.9" y="179.7" width="10" height="10" stroke-opacity=".35"/><rect class="p s" x="193.9" y="194.3" width="10" height="10" stroke-opacity=".35"/><rect class="p s" x="193.9" y="208.9" width="10" height="10" stroke-opacity=".35"/><rect class="p s" x="193.9" y="223.5" width="10" height="10" stroke-opacity=".35"/><rect class="p s" x="193.9" y="238.1" width="10" height="10" stroke-opacity=".35"/><rect class="p s" x="208.5" y="150.5" width="10" height="10" stroke-opacity=".35"/><rect class="p s" x="208.5" y="165.1" width="10" height="10" stroke-opacity=".35"/><rect class="p s" x="208.5" y="179.7" width="10" height="10" stroke-opacity=".35"/><rect class="p s" x="208.5" y="194.3" width="10" height="10" stroke-opacity=".35"/><rect class="p s" x="208.5" y="208.9" width="10" height="10" stroke-opacity=".35"/><rect class="p s" x="208.5" y="223.5" width="10" height="10" stroke-opacity=".35"/><rect class="p s" x="208.5" y="238.1" width="10" height="10" stroke-opacity=".35"/><rect class="p s" x="223.1" y="150.5" width="10" height="10" stroke-opacity=".35"/><rect class="p s" x="223.1" y="165.1" width="10" height="10" stroke-opacity=".35"/><rect class="p s" x="223.1" y="179.7" width="10" height="10" stroke-opacity=".35"/><rect class="p s" x="223.1" y="194.3" width="10" height="10" stroke-opacity=".35"/><rect class="p s" x="223.1" y="208.9" width="10" height="10" stroke-opacity=".35"/><rect class="p s" x="223.1" y="223.5" width="10" height="10" stroke-opacity=".35"/><rect class="p s" x="223.1" y="238.1" width="10" height="10" stroke-opacity=".35"/><rect class="p s" x="237.7" y="150.5" width="10" height="10" stroke-opacity=".35"/><rect class="p s" x="237.7" y="165.1" width="10" height="10" stroke-opacity=".35"/><rect class="p s" x="237.7" y="179.7" width="10" height="10" stroke-opacity=".35"/><rect class="p s" x="237.7" y="194.3" width="10" height="10" stroke-opacity=".35"/><rect class="p s" x="237.7" y="208.9" width="10" height="10" stroke-opacity=".35"/><rect class="p s" x="237.7" y="223.5" width="10" height="10" stroke-opacity=".35"/><rect class="p s" x="237.7" y="238.1" width="10" height="10" stroke-opacity=".35"/><rect class="p s" x="252.3" y="150.5" width="10" height="10" stroke-opacity=".35"/><rect class="p s" x="252.3" y="165.1" width="10" height="10" stroke-opacity=".35"/><rect class="p s" x="252.3" y="179.7" width="10" height="10" stroke-opacity=".35"/><rect class="p s" x="252.3" y="194.3" width="10" height="10" stroke-opacity=".35"/><rect class="p s" x="252.3" y="208.9" width="10" height="10" stroke-opacity=".35"/><rect class="p s" x="252.3" y="223.5" width="10" height="10" stroke-opacity=".35"/><rect class="p s" x="252.3" y="238.1" width="10" height="10" stroke-opacity=".35"/><rect class="p s" x="266.9" y="150.5" width="10" height="10" stroke-opacity=".35"/><rect class="p s" x="266.9" y="165.1" width="10" height="10" stroke-opacity=".35"/><rect class="p s" x="266.9" y="179.7" width="10" height="10" stroke-opacity=".35"/><rect class="p s" x="266.9" y="194.3" width="10" height="10" stroke-opacity=".35"/><rect class="p s" x="266.9" y="208.9" width="10" height="10" stroke-opacity=".35"/><rect class="p s" x="266.9" y="223.5" width="10" height="10" stroke-opacity=".35"/><rect class="p s" x="266.9" y="238.1" width="10" height="10" stroke-opacity=".35"/><rect class="p s" x="281.5" y="150.5" width="10" height="10" stroke-opacity=".35"/><rect class="p s" x="281.5" y="165.1" width="10" height="10" stroke-opacity=".35"/><rect class="p s" x="281.5" y="179.7" width="10" height="10" stroke-opacity=".35"/><rect class="p s" x="281.5" y="194.3" width="10" height="10" stroke-opacity=".35"/><rect class="p s" x="281.5" y="208.9" width="10" height="10" stroke-opacity=".35"/><rect class="p s" x="281.5" y="223.5" width="10" height="10" stroke-opacity=".35"/><rect class="p s" x="281.5" y="238.1" width="10" height="10" stroke-opacity=".35"/><rect class="p s" x="296.1" y="150.5" width="10" height="10" stroke-opacity=".35"/><rect class="p s" x="296.1" y="165.1" width="10" height="10" stroke-opacity=".35"/><rect class="p s" x="296.1" y="179.7" width="10" height="10" stroke-opacity=".35"/><rect class="p s" x="296.1" y="194.3" width="10" height="10" stroke-opacity=".35"/><rect class="p s" x="296.1" y="208.9" width="10" height="10" stroke-opacity=".35"/><rect class="p s" x="296.1" y="223.5" width="10" height="10" stroke-opacity=".35"/><rect class="p s" x="296.1" y="238.1" width="10" height="10" stroke-opacity=".35"/><rect class="p s" x="310.7" y="150.5" width="10" height="10" stroke-opacity=".35"/><rect class="p s" x="310.7" y="165.1" width="10" height="10" stroke-opacity=".35"/><rect class="p s" x="310.7" y="179.7" width="10" height="10" stroke-opacity=".35"/><rect class="p s" x="310.7" y="194.3" width="10" height="10" stroke-opacity=".35"/><rect class="p s" x="310.7" y="208.9" width="10" height="10" stroke-opacity=".35"/><rect class="p s" x="310.7" y="223.5" width="10" height="10" stroke-opacity=".35"/><rect class="p s" x="310.7" y="238.1" width="10" height="10" stroke-opacity=".35"/><rect class="p s" x="325.3" y="150.5" width="10" height="10" stroke-opacity=".35"/><rect class="p s" x="325.3" y="165.1" width="10" height="10" stroke-opacity=".35"/><rect class="p s" x="325.3" y="179.7" width="10" height="10" stroke-opacity=".35"/><rect class="p s" x="325.3" y="194.3" width="10" height="10" stroke-opacity=".35"/><rect class="p s" x="325.3" y="208.9" width="10" height="10" stroke-opacity=".35"/><rect class="p s" x="325.3" y="223.5" width="10" height="10" stroke-opacity=".35"/><rect class="p s" x="325.3" y="238.1" width="10" height="10" stroke-opacity=".35"/><rect class="p s" x="339.9" y="150.5" width="10" height="10" stroke-opacity=".35"/><rect class="p s" x="339.9" y="165.1" width="10" height="10" stroke-opacity=".35"/><rect class="p s" x="339.9" y="179.7" width="10" height="10" stroke-opacity=".35"/><rect class="p s" x="339.9" y="194.3" width="10" height="10" stroke-opacity=".35"/><rect class="p s" x="339.9" y="208.9" width="10" height="10" stroke-opacity=".35"/><rect class="p s" x="339.9" y="223.5" width="10" height="10" stroke-opacity=".35"/><rect class="p s" x="339.9" y="238.1" width="10" height="10" stroke-opacity=".35"/><rect class="p s" x="354.5" y="150.5" width="10" height="10" stroke-opacity=".35"/><rect class="p s" x="354.5" y="165.1" width="10" height="10" stroke-opacity=".35"/><rect class="p s" x="354.5" y="179.7" width="10" height="10" stroke-opacity=".35"/><rect class="p s" x="354.5" y="194.3" width="10" height="10" stroke-opacity=".35"/><rect class="p s" x="354.5" y="208.9" width="10" height="10" stroke-opacity=".35"/><rect class="p s" x="354.5" y="223.5" width="10" height="10" stroke-opacity=".35"/><rect class="p s" x="354.5" y="238.1" width="10" height="10" stroke-opacity=".35"/><rect class="p s" x="369.1" y="150.5" width="10" height="10" stroke-opacity=".35"/><rect class="p s" x="369.1" y="165.1" width="10" height="10" stroke-opacity=".35"/><rect class="p s" x="369.1" y="179.7" width="10" height="10" stroke-opacity=".35"/><rect class="p s" x="369.1" y="194.3" width="10" height="10" stroke-opacity=".35"/><rect class="p s" x="369.1" y="208.9" width="10" height="10" stroke-opacity=".35"/><rect class="p s" x="369.1" y="223.5" width="10" height="10" stroke-opacity=".35"/><rect class="p s" x="369.1" y="238.1" width="10" height="10" stroke-opacity=".35"/><rect class="p s" x="383.7" y="150.5" width="10" height="10" stroke-opacity=".35"/><rect class="p s" x="383.7" y="165.1" width="10" height="10" stroke-opacity=".35"/><rect class="p s" x="383.7" y="179.7" width="10" height="10" stroke-opacity=".35"/><rect class="p s" x="383.7" y="194.3" width="10" height="10" stroke-opacity=".35"/><rect class="p s" x="383.7" y="208.9" width="10" height="10" stroke-opacity=".35"/><rect class="p s" x="383.7" y="223.5" width="10" height="10" stroke-opacity=".35"/><rect class="p s" x="383.7" y="238.1" width="10" height="10" stroke-opacity=".35"/><rect class="p s" x="398.3" y="150.5" width="10" height="10" stroke-opacity=".35"/><rect class="p s" x="398.3" y="165.1" width="10" height="10" stroke-opacity=".35"/><rect class="p s" x="398.3" y="179.7" width="10" height="10" stroke-opacity=".35"/><rect class="p s" x="398.3" y="194.3" width="10" height="10" stroke-opacity=".35"/><rect class="p s" x="398.3" y="208.9" width="10" height="10" stroke-opacity=".35"/><rect class="p s" x="398.3" y="223.5" width="10" height="10" stroke-opacity=".35"/><rect class="p s" x="398.3" y="238.1" width="10" height="10" stroke-opacity=".35"/><rect class="p s" x="412.9" y="150.5" width="10" height="10" stroke-opacity=".35"/><rect class="p s" x="412.9" y="165.1" width="10" height="10" stroke-opacity=".35"/><rect class="p s" x="412.9" y="179.7" width="10" height="10" stroke-opacity=".35"/><rect class="p s" x="412.9" y="194.3" width="10" height="10" stroke-opacity=".35"/><rect class="p s" x="412.9" y="208.9" width="10" height="10" stroke-opacity=".35"/><rect class="p s" x="412.9" y="223.5" width="10" height="10" stroke-opacity=".35"/><rect class="p s" x="412.9" y="238.1" width="10" height="10" stroke-opacity=".35"/><rect class="p s" x="427.5" y="150.5" width="10" height="10" stroke-opacity=".35"/><rect class="i" x="427.0" y="164.6" width="11" height="11" fill-opacity="0.35"><title>2026-10-05: 1</title></rect><rect class="p s" x="427.5" y="179.7" width="10" height="10" stroke-opacity=".35"/><text class="g m" x="62" y="272" font-size="10">меньше</text><rect class="p s" x="112.5" y="263.5" width="10" height="10" stroke-opacity=".35"/><rect class="i" x="126" y="263" width="11" height="11" fill-opacity="0.35"/><rect class="i" x="140" y="263" width="11" height="11" fill-opacity="0.6"/><rect class="i" x="154" y="263" width="11" height="11" fill-opacity="0.85"/><rect class="i" x="168" y="263" width="11" height="11" fill-opacity="1"/><text class="g m" x="190" y="272" font-size="10">больше</text><line class="s" x1="500.5" y1="60" x2="500.5" y2="262" stroke-dasharray="2 3"/><text class="g m" x="524" y="70" font-size="10">▪ языки</text><text class="i m" x="524" y="96" font-size="13">Python</text><text class="i m" x="836" y="96" font-size="13" text-anchor="end">100.0%</text><rect class="p s" x="524.5" y="103.5" width="311" height="8"/><rect class="i" x="524" y="103" width="312.0" height="9"/><text class="g m" x="836" y="272" font-size="10" text-anchor="end">обновлено 06.10.2026</text></svg>